<svg width="29" height="30" viewBox="0 0 29 30" fill="none" xmlns="http://www.w3.org/2000/svg" color="#E0DEDC">
	<path fill="currentColor"
		d="M0 19.6167C0.0623113 19.5977 0.124046 19.5636 0.186934 19.5613C0.942747 19.5382 1.69798 19.514 2.45379 19.503C3.12883 19.4938 3.80387 19.5071 4.47833 19.4996C5.93573 19.484 7.39312 19.4661 8.85051 19.4401C9.20245 19.4338 9.57343 19.4546 9.90172 19.353C10.4637 19.1788 10.9189 18.8378 11.2668 18.3272C11.7393 17.6343 12.2471 16.9587 12.8009 16.3298C13.0779 16.0153 13.4615 15.7407 13.8516 15.5918C14.5716 15.3172 15.2282 15.4961 15.8346 16.0182C16.6025 16.6788 17.1489 17.5039 17.6981 18.3272C18.1903 19.064 18.8913 19.4528 19.7227 19.4817C21.0906 19.529 22.4632 19.4453 23.8335 19.4494C24.576 19.4517 25.318 19.5342 26.0605 19.5527C26.4984 19.5636 26.9375 19.4996 27.3754 19.5071C27.6945 19.5128 28.0124 19.5775 28.3297 19.623C28.3695 19.6288 28.4036 19.675 28.4993 19.7471C28.347 19.8106 28.2368 19.8584 28.1255 19.9029C27.9974 19.9542 27.8653 19.9963 27.7412 20.0563C27.6258 20.1123 27.4498 20.1671 27.4239 20.2577C27.3731 20.4354 27.3945 20.6391 27.4123 20.8295C27.4337 21.0631 27.492 21.2933 27.5139 21.5264C27.5208 21.5991 27.4775 21.6926 27.4285 21.7514C26.8925 22.3913 26.3542 23.0288 25.809 23.6606C25.6342 23.8631 25.4317 24.042 25.2551 24.2433C25.2176 24.286 25.217 24.3881 25.2384 24.4493C25.3093 24.6529 25.4005 24.8491 25.479 25.0499C25.5084 25.1243 25.5245 25.2039 25.547 25.2813C25.5263 25.2939 25.5055 25.3061 25.4847 25.3188C25.2655 25.1843 25.0549 25.0309 24.823 24.9253C24.7266 24.8814 24.5645 24.9051 24.4653 24.9593C24.0025 25.2109 23.5398 25.4659 23.1025 25.7578C22.9207 25.8796 22.7661 25.8749 22.585 25.8334C22.1003 25.7226 21.6064 25.6395 21.1356 25.4861C20.8956 25.4082 20.7854 25.5553 20.6262 25.6286C20.5327 25.6719 20.4554 25.7636 20.3596 25.7855C19.8306 25.9061 19.7094 26.3434 19.5536 26.7692C19.328 27.3866 19.0823 27.9964 18.844 28.6086C18.773 28.7903 18.672 28.8613 18.4563 28.7903C17.4668 28.4661 16.4733 28.1522 15.4751 27.8545C15.3055 27.8037 15.092 27.8049 14.9247 27.8608C13.8296 28.226 12.7484 28.6345 11.6476 28.9819C11.2645 29.1024 10.9697 29.2409 10.8433 29.6459C10.8029 29.7752 10.6945 29.8825 10.6171 30.0002H10.5595C10.5727 29.7815 10.6027 29.5623 10.5952 29.3448C10.5854 29.0776 10.6466 28.709 10.4994 28.5618C9.73498 27.7979 9.10898 26.9365 8.51876 26.0405C8.35779 25.7959 8.13393 25.6436 7.79756 25.6655C7.3285 25.6961 6.85597 25.6736 6.38517 25.673C6.1417 25.673 5.96227 25.7584 5.81918 25.9759C5.56013 26.3694 5.34781 26.8269 4.77431 26.8696C4.52276 26.8887 4.27525 26.9579 4.02427 26.9937C3.97869 27 3.92619 26.9556 3.82695 26.9135C3.95157 26.8512 4.02889 26.7946 4.11485 26.7727C4.80374 26.5973 5.04433 25.9984 5.35069 25.4647C5.37723 25.418 5.35415 25.3349 5.33858 25.2726C5.23415 24.8451 5.10087 24.4233 5.02702 23.9906C4.96413 23.6231 4.82335 23.3484 4.49449 23.1477C3.87657 22.7698 3.28461 22.3492 2.66727 21.9713C2.20859 21.6909 2.04416 21.2564 1.968 20.7706C1.94203 20.6068 1.89011 20.53 1.72798 20.47C1.14641 20.2583 0.575225 20.0194 0 19.7898C0 19.7321 0 19.6744 0 19.6167ZM2.2784 20.6552C2.31186 20.8029 2.36552 20.9206 2.35975 21.036C2.34475 21.3406 2.50745 21.508 2.75497 21.6343C3.03191 21.7751 3.30942 21.9153 3.57655 22.0734C3.97061 22.3065 4.35544 22.5557 4.74431 22.798C4.73797 22.3936 4.67854 22.0515 4.60873 21.7122C4.60007 21.6707 4.54065 21.628 4.49507 21.6072C4.33237 21.5345 4.16447 21.4739 4.00119 21.4035C3.43462 21.1589 2.8692 20.912 2.27898 20.6552H2.2784ZM21.7507 24.9074C22.0293 25.0412 22.2261 25.1578 22.4384 25.2299C22.5769 25.2766 22.7557 25.3078 22.8844 25.2605C23.3419 25.0914 23.7873 24.8895 24.2322 24.6887C24.3014 24.6576 24.3441 24.567 24.3995 24.5041C24.3158 24.4522 24.2385 24.3766 24.1474 24.3524C23.9039 24.2877 23.6564 24.2352 23.4077 24.1977C23.2808 24.1787 23.1261 24.1614 23.02 24.2145C22.6034 24.4222 22.2013 24.6587 21.7507 24.908V24.9074Z" />
	<path fill="currentColor"
		d="M14.7701 0C14.8278 0.14597 14.8831 0.292517 14.9431 0.437333C15.0251 0.634652 15.0712 0.863704 15.2028 1.02064C15.5409 1.42277 15.9009 1.81049 16.288 2.16416C16.4253 2.28936 16.6631 2.31648 16.8615 2.35975C17.2752 2.44976 17.6998 2.49476 18.106 2.60842C18.3928 2.68862 18.6039 2.6615 18.7834 2.42149C18.8797 2.29225 18.9847 2.16993 19.0857 2.04473C19.1151 2.06262 19.1451 2.08108 19.1745 2.09897C19.1745 2.15378 19.1884 2.21321 19.1717 2.26167C19.1411 2.34994 19.0811 2.42899 19.0522 2.51784C18.8099 3.25577 19.3603 3.996 20.1415 4.0485C20.6285 4.08081 21.127 4.14255 21.5885 4.28967C22.1672 4.47372 22.6646 4.36179 23.1665 4.08947C23.4533 3.93369 23.5554 3.99427 23.5375 4.30929C23.5086 4.82105 23.4642 5.33223 23.4209 5.84284C23.4169 5.89419 23.3857 5.95246 23.3488 5.98996C22.9865 6.35864 23.1475 6.80116 23.1832 7.22061C23.1884 7.28061 23.3004 7.36485 23.3754 7.38043C24.0285 7.51659 24.6845 7.6389 25.3387 7.76699C25.5603 7.81026 25.783 7.90257 26.0011 7.89161C26.2059 7.8818 26.4044 7.7618 26.608 7.69775C26.6692 7.67871 26.7384 7.68564 26.8042 7.68044C26.784 7.73583 26.7765 7.80218 26.7407 7.84545C26.4857 8.15759 26.4777 8.54126 26.4257 8.91225C26.394 9.13668 26.3703 9.3617 26.3392 9.61844C26.7811 9.8348 27.2358 10.0569 27.6898 10.2785C27.6858 10.3033 27.6812 10.3281 27.6771 10.3523C27.4862 10.3823 27.2958 10.4395 27.1054 10.4377C26.5994 10.4337 26.094 10.3933 25.588 10.3875C24.7803 10.3783 23.9725 10.38 23.1653 10.3858C20.9291 10.4025 18.6928 10.4325 16.4559 10.4389C15.3349 10.4418 14.2139 10.3858 13.0928 10.3887C10.8658 10.395 8.63932 10.436 6.41227 10.4383C4.68543 10.44 2.9586 10.406 1.23177 10.3812C1.09677 10.3794 0.962335 10.3252 0.740784 10.2767C0.886177 10.1856 0.954835 10.1365 1.02868 10.0973C1.29351 9.95769 1.57968 9.84807 1.81738 9.67268C1.93162 9.58844 2.00605 9.38304 2.01009 9.22957C2.0274 8.60646 2.29741 8.14605 2.81956 7.82007C3.04688 7.67814 3.02265 7.43005 3.05496 7.21253C3.08727 6.99791 3.074 6.77462 3.12015 6.56403C3.20381 6.18209 2.88706 5.95708 2.79417 5.64725C2.76417 5.54801 2.74225 5.44589 2.71686 5.34492C2.74744 5.33339 2.77859 5.32127 2.80917 5.30973C3.00361 5.53013 3.18362 5.7661 3.39767 5.96515C3.5246 6.08343 3.69711 6.19594 3.86269 6.22132C4.40446 6.30383 4.95257 6.3471 5.49894 6.40018C5.69742 6.41922 5.85319 6.40018 6.00436 6.19997C6.54093 5.49147 7.10692 4.80489 7.68099 4.12639C7.82062 3.96138 7.8887 3.82522 7.81023 3.61867C7.72773 3.4 7.65907 3.17557 7.59503 2.95056C7.57599 2.88305 7.59214 2.80516 7.59214 2.79074C7.78138 2.8467 7.9412 2.93036 8.10448 2.93613C8.64913 2.95575 9.14531 3.06652 9.55783 3.46174C9.81919 3.71214 10.1359 3.53674 10.4267 3.4952C10.6015 3.46982 10.7712 3.36423 10.9419 3.36654C11.1266 3.36885 11.3412 3.41212 11.4866 3.51597C11.6591 3.63944 11.8022 3.67983 11.9787 3.58059C12.1732 3.47097 12.4449 3.43231 12.4057 3.10114C12.3486 2.61996 12.5257 2.19705 12.7438 1.78049C12.7998 1.67317 12.7796 1.52317 12.783 1.3922C12.7853 1.282 12.7709 1.17122 12.813 1.03391C12.9515 1.48451 13.3311 1.50528 13.671 1.5774C13.7402 1.59182 13.8302 1.54451 13.8994 1.50586C13.9444 1.48047 13.96 1.4072 14.0033 1.37489C14.4302 1.05641 14.6731 0.645614 14.6627 0.100967C14.6622 0.0675039 14.6945 0.0340404 14.7112 0C14.7302 0 14.7499 0 14.7689 0L14.7701 0ZM12.7738 3.12133C13.1494 2.8744 13.499 2.64477 13.8302 2.42726C13.7154 2.03319 13.4794 1.82145 13.113 1.75741C12.7496 2.28763 12.6036 2.49938 12.7738 3.12076V3.12133ZM23.2179 4.26429C23.0938 4.35371 22.9686 4.44141 22.8457 4.53257C22.6622 4.66815 22.5745 4.81759 22.6853 5.05991C22.7961 5.30165 22.8607 5.56475 22.9663 5.88034C23.3165 5.35935 23.1238 4.79797 23.2173 4.26429H23.2179ZM2.94245 8.4703C2.90841 8.45414 2.87495 8.43857 2.84091 8.42241C2.66147 8.75589 2.48204 9.0888 2.28818 9.44824C2.96149 9.36689 2.86283 8.86609 2.94245 8.4703ZM8.1691 3.3677C8.35372 3.72599 8.5822 3.78541 8.93241 3.56328C8.6572 3.49289 8.43854 3.43693 8.1691 3.3677Z" />
	<path fill="#DE1C10"
		d="M28.5018 16.6741C28.3772 17.0433 28.312 17.4535 27.9635 17.6918C27.7876 17.8118 27.5648 17.9318 27.3623 17.933C24.7857 17.9491 22.209 17.9416 19.6329 17.9451C19.1713 17.9457 18.8395 17.7201 18.6595 17.3295C18.5372 17.0641 18.4772 16.7491 18.4714 16.4548C18.4501 15.3494 18.4593 14.2439 18.4651 13.1379C18.4668 12.764 18.5718 12.4184 18.7847 12.1028C18.9809 11.8115 19.2555 11.6597 19.5896 11.6592C22.1853 11.6517 24.781 11.6534 27.3768 11.6563C27.8608 11.6568 28.3622 12.1963 28.4459 12.779C28.4528 12.8292 28.4828 12.876 28.5018 12.9238V16.6741Z" />
	<path fill="#2575EE"
		d="M5.38195 17.8857C4.12246 17.8857 2.86238 17.8585 1.60404 17.896C0.901309 17.9174 0.421281 17.2435 0.411473 16.7271C0.387241 15.4007 0.383779 14.0737 0.413204 12.7479C0.42532 12.2199 0.885154 11.5893 1.61962 11.5928C4.13803 11.6037 6.65702 11.5968 9.17544 11.5968C9.7899 11.5968 10.3218 12.108 10.3247 12.7213C10.3317 14.0864 10.3472 15.452 10.3161 16.8166C10.3045 17.3312 9.87875 17.8937 9.24583 17.8885C7.95748 17.8782 6.66972 17.8857 5.38137 17.8857H5.38195Z" />
</svg>